# xmcd
#
# Track frame offsets: 
#        151
#        21059
#        33665
#        52628
#        68218
#        83891
#        97630
#        111484
#        124464
#        138932
#        154070
#        172650
#        184486
#        200228
#        214391
#        228688
#
# Disc length: 3410 seconds
#
# Revision: 2
# Processed by: cddbd v1.5.1PL2 Copyright (c) Steve Scherf et al.
# Submitted via: ExactAudioCopy v0.95b4
#
DISCID=e20d5010
DTITLE=蔡琴 - 蔡琴歌曲集CD2
DYEAR=1998
DGENRE=Blues
TTITLE0=初戀女
TTITLE1=今宵多珍重
TTITLE2=意難忘
TTITLE3=綠島小夜曲
TTITLE4=我有一段情
TTITLE5=魂縈舊夢
TTITLE6=明日千里寄相思
TTITLE7=空中歌聲
TTITLE8=月光組曲
TTITLE9=問白雲
TTITLE10=飄零的落花
TTITLE11=夢裡相思
TTITLE12=紅薔薇
TTITLE13=昨夜你對我一笑
TTITLE14=送別
TTITLE15=庭院深深
EXTD=
EXTT0=
EXTT1=
EXTT2=
EXTT3=
EXTT4=
EXTT5=
EXTT6=
EXTT7=
EXTT8=
EXTT9=
EXTT10=
EXTT11=
EXTT12=
EXTT13=
EXTT14=
EXTT15=
PLAYORDER=
